# xmcd generated by iCDc
#
# Track frame offsets:
#     183
#     18483
#     33633
#     55258
#     99358
#     116508
#     145158
#     159433
#     178558
#     197958
#     213933
#     247483
#     268983
#     299508
#     325583
#
# Disc length: 4743 seconds
#
# Revision: 0
# Processed by: cddbd v1.4PL0 Copyright (c) Steve Scherf et al.
# Submitted via: iCDc 2.0 http://homepage.mac.com/andersw/icdc/
#
DISCID=e512850f
DTITLE=Eric Clapton - Further On Up The Crossroads - Disc 4
DYEAR=1995
DGENRE=Blues
TTITLE0=Knock On Wood
TTITLE1=You Don't Know Like I Know
TTITLE2=Lady Of Verona
TTITLE3=Same Old Blues
TTITLE4=Phone Booth
TTITLE5=After Midnight
TTITLE6=Training (Jam #1)
TTITLE7=Training (Jam #2)
TTITLE8=Keep A-Knockin'
TTITLE9=Communinon
TTITLE10=Breaking Point
TTITLE11=No Alibis
TTITLE12=Wonderful Tonight
TTITLE13=Before You Accuse Me
TTITLE14=Sweet Home Chicago
EXTD=
EXTT0=
EXTT1=
EXTT2=
EXTT3=
EXTT4=
EXTT5=
EXTT6=
EXTT7=
EXTT8=
EXTT9=
EXTT10=
EXTT11=
EXTT12=
EXTT13=
EXTT14=
PLAYORDER=
